PathFileType	3	(X/Y/Z)	RCH0000002 BBF 04.c3d
DataRate	CameraRate	NumFrames	NumMarkers	Units	OrigDataRate	OrigDataStartFrame	OrigNumFrames
100.0	100.0	12	23	mm	100.0	399	346
Frame#	Time	T2			MAN			RASI			LPAT			LKNE			LANK			LMED			LHEE			LTOE			RPAT			RKNE			LASI			T10			RPSI			RANK			RTOE			RMED			RHEE			LPSI			RTHI			LTHI			RTIB			LTIB			
		X1	Y1	Z1	X2	Y2	Z2	X3	Y3	Z3	X4	Y4	Z4	X5	Y5	Z5	X6	Y6	Z6	X7	Y7	Z7	X8	Y8	Z8	X9	Y9	Z9	X10	Y10	Z10	X11	Y11	Z11	X12	Y12	Z12	X13	Y13	Z13	X14	Y14	Z14	X15	Y15	Z15	X16	Y16	Z16	X17	Y17	Z17	X18	Y18	Z18	X19	Y19	Z19	X20	Y20	Z20	X21	Y21	Z21	X22	Y22	Z22	X23	Y23	Z23	

399	3.980	-389.38882	121.14295	968.66458	-255.52183	123.62302	954.63811	-272.88940	-9.65493	648.03362	-257.12815	138.65603	380.44898	-294.96355	201.74895	342.94128	-354.67115	225.11735	74.11166	-357.20253	154.36113	88.04186	-396.95426	186.60632	103.88072	-307.99993	186.20387	68.55596	-251.62085	26.80446	352.85639	-308.88876	-23.59061	331.72358	-270.34696	167.26721	646.15820	-361.09459	91.38158	788.62887	-379.37908	45.36066	702.90139	-493.68717	-46.48798	135.89301	-472.14394	-8.45857	95.43250	-497.49166	22.06980	149.79395	-509.52644	-14.81337	189.02701	-379.06961	116.03334	702.62455	-296.33262	-88.63926	445.42964	-300.85259	264.79029	471.25249	-381.95392	-99.02496	254.80931	-316.66540	275.29130	233.12535	
400	3.990	-379.64589	120.59953	971.59245	-245.91592	123.03103	956.99043	-263.50708	-7.80032	650.04269	-255.60907	140.14159	380.96923	-294.28467	203.19335	344.02507	-354.76637	224.61740	75.04443	-356.39983	153.98109	89.19556	-396.56332	185.81375	105.09829	-307.73059	186.13767	69.12030	-233.14088	28.17527	358.18651	-289.91514	-22.26420	335.20841	-262.76122	169.19998	648.41059	-352.48461	91.78159	791.30338	-370.64452	46.02535	705.03366	-472.06465	-44.60423	137.33811	-448.63929	-7.04999	97.81874	-475.75522	24.09238	150.84810	-489.05709	-12.56343	189.82490	-370.78722	116.64059	705.08262	-281.24896	-87.41212	449.15376	-297.14513	266.34848	472.42673	-362.27072	-97.41979	257.72338	-317.53019	276.11092	233.78946	
401	4.000	-369.93498	120.05254	974.47066	-236.35472	122.40074	959.15533	-254.32367	-6.10309	652.14714	-253.76392	141.36794	381.42485	-293.22937	204.36448	345.04264	-354.68188	224.07576	76.03151	-355.41624	153.54696	90.35004	-395.95093	184.94527	106.36821	-307.28686	186.02586	69.67646	-214.87338	29.35116	364.00161	-271.13741	-21.03587	339.10003	-255.27501	170.94501	650.45769	-344.11427	92.26061	793.85916	-362.12495	46.68344	707.00780	-449.86722	-42.42291	138.40687	-424.40906	-5.33587	100.03008	-453.43886	26.37803	151.59523	-468.16440	-10.06206	190.20334	-362.68851	117.21317	707.24329	-266.51774	-86.36055	453.11068	-293.27802	267.63039	473.47146	-342.61898	-95.75215	260.64101	-318.04807	276.72402	234.51283	
402	4.010	-360.24658	119.54457	977.20419	-226.82434	121.74607	961.06378	-245.29695	-4.56737	654.23595	-251.55411	142.44214	381.79219	-291.77721	205.35503	345.98115	-354.40540	223.61066	77.04585	-354.29862	153.17745	91.50325	-395.13171	184.15753	107.68480	-306.68877	185.94990	70.21053	-196.83242	30.31827	370.15393	-252.56705	-19.90530	343.27263	-247.86297	172.49847	652.27270	-335.93245	92.78656	796.22212	-353.78089	47.28558	708.75156	-427.16509	-39.96779	139.10876	-399.59260	-3.34508	102.04400	-430.58986	28.90497	152.03604	-446.85810	-7.32226	190.17413	-354.74517	117.70480	709.07191	-252.11752	-85.47695	457.17070	-289.25691	268.70150	474.39481	-323.01356	-94.02833	263.48777	-318.14074	277.23509	235.26967	
403	4.020	-350.57122	119.10347	979.70919	-217.31164	121.07561	962.65848	-236.38275	-3.18967	656.20265	-248.97907	143.45856	382.05106	-289.94387	206.25415	346.83225	-353.93908	223.31436	78.05766	-353.09371	152.96724	92.64879	-394.13210	183.57598	109.03362	-305.96135	185.97626	70.71018	-179.04147	31.08138	376.49697	-234.21765	-18.86393	347.60053	-240.50274	173.86462	653.83991	-327.88783	93.32104	798.33004	-345.56995	47.78663	710.20392	-404.01288	-37.27750	139.45742	-374.30263	-1.12155	103.84358	-407.24622	31.63943	152.16940	-425.14609	-4.37001	189.74611	-346.92677	118.07429	710.54824	-238.01385	-84.74286	461.20924	-285.09856	269.62741	475.20804	-303.46181	-92.25693	266.19630	-317.77553	277.73867	236.03213	
404	4.030	-340.89955	118.74113	981.91576	-207.80441	120.39270	963.89545	-227.53670	-1.96070	657.95059	-246.06900	144.48974	382.18491	-287.77242	207.13758	347.59099	-353.30092	223.24546	79.03732	-351.84512	152.97891	93.77642	-392.98839	183.28379	110.39375	-305.13416	186.15074	71.16486	-161.53558	31.66525	382.88889	-216.10830	-17.89410	351.96160	-233.17291	175.05400	655.15310	-319.93045	93.82242	800.13362	-337.44790	48.14937	711.31597	-380.44710	-34.40468	139.46322	-348.62319	1.27988	105.41197	-383.43922	34.53543	151.98776	-403.03525	-1.24697	188.91916	-339.19996	118.28903	711.66457	-224.16594	-84.12997	465.11096	-280.82291	270.46674	475.92171	-283.96350	-90.44865	268.70417	-316.96472	278.30947	236.77239	
405	4.040	-331.22262	118.45371	983.76952	-198.29139	119.69588	964.74484	-218.71549	-0.86746	659.39692	-242.87485	145.58254	382.18143	-285.32299	208.06128	348.25535	-352.52344	223.42683	79.95866	-350.59078	153.24026	94.87359	-391.74338	183.31800	111.74139	-304.24008	186.49627	71.56622	-144.36153	32.11417	389.19383	-198.26571	-16.96900	356.23880	-225.85094	176.08148	656.21356	-312.01285	94.24872	801.59662	-329.36944	48.34683	712.05102	-356.48719	-31.41371	139.12767	-322.61282	3.79857	106.72780	-359.19824	37.53604	151.47403	-380.53349	1.98857	187.68034	-331.52788	118.32711	712.42312	-210.53295	-83.60192	468.77156	-276.44688	271.26656	476.54325	-264.51116	-88.61570	270.95089	-315.75918	278.99665	237.46542	
406	4.050	-321.53199	118.22289	985.23196	-188.76239	118.97961	965.19095	-209.87757	0.10482	660.47514	-239.45661	146.75887	382.03317	-282.66154	209.05878	348.82598	-351.64996	223.84873	80.80181	-349.36094	153.74661	95.92769	-390.44207	183.67241	113.05387	-303.31319	187.01395	71.90858	-127.57583	32.49011	395.28154	-180.72466	-16.05353	360.32025	-218.51151	176.96451	657.02809	-304.09073	94.56026	802.69516	-321.28892	48.36331	712.38398	-332.14093	-28.37695	138.44041	-296.31275	6.37341	107.76227	-334.55773	40.57579	150.60051	-357.65367	5.26307	186.00300	-323.87002	118.17795	712.83326	-197.07880	-83.11632	472.09770	-271.98006	272.06017	477.07600	-245.09143	-86.77083	272.87517	-314.23751	279.82253	238.09162	
407	4.060	-311.82008	118.01831	986.27991	-179.20825	118.23519	965.23151	-200.98343	0.97117	661.13635	-235.87151	148.01970	381.73757	-279.84905	210.14182	349.30579	-350.72906	224.47581	81.55534	-348.17685	154.46696	96.92827	-389.12700	184.30590	114.31345	-302.38622	187.68670	72.18938	-111.24092	32.86918	401.02611	-163.52687	-15.10601	364.09857	-211.12539	177.72148	657.60687	-296.12314	94.72180	803.41645	-313.16091	48.19407	712.30038	-307.41446	-25.37003	137.37926	-269.75943	8.94758	108.47841	-309.56609	43.58454	149.33017	-334.41979	8.49148	183.84912	-316.18261	117.84169	712.90866	-183.77485	-82.62706	475.00588	-267.42209	272.86706	477.51921	-225.68823	-84.92615	274.41356	-312.49214	280.78493	238.63884	
408	4.070	-302.08043	117.80050	986.90408	-169.62098	117.45165	964.87648	-191.99558	1.74581	661.34929	-232.16351	149.35084	381.29635	-276.93172	211.30342	349.69902	-349.80841	225.25619	82.21749	-347.04997	155.35228	97.86894	-387.83369	185.15365	115.51039	-301.48764	188.48437	72.40925	-95.41985	33.33697	406.30471	-146.71847	-14.08068	367.47022	-203.65890	178.37056	657.96151	-288.07245	94.70437	803.75717	-304.94065	47.84422	711.79523	-282.32602	-22.46647	135.91315	-242.99991	11.47223	108.83260	-284.29552	46.49202	147.62032	-310.87517	11.58327	181.17471	-308.41944	117.32770	712.66475	-170.60036	-82.08652	477.42107	-262.76138	273.69440	477.86857	-206.28790	-83.09181	275.50123	-310.61448	281.86208	239.10327	
409	4.080	-292.30804	117.52437	987.10701	-159.99379	116.61678	964.14647	-182.87852	2.44154	661.09962	-228.35478	150.72872	380.71399	-273.93319	212.52230	350.00979	-348.92876	226.13079	82.79629	-345.98191	156.34438	98.74861	-386.58668	186.13936	116.64493	-300.63909	189.36935	72.57191	-80.17023	33.98274	410.99730	-130.34648	-12.93093	370.33581	-196.07417	178.92877	658.10326	-279.90399	94.48666	803.72166	-296.58466	47.32695	710.87214	-256.92196	-19.73251	134.00732	-216.10824	13.90868	108.77813	-258.85175	49.23285	145.42813	-287.09203	14.44972	177.93759	-300.53310	116.65266	712.11664	-157.54091	-81.44789	479.27623	-257.97468	274.53938	478.11673	-186.88619	-81.27473	276.07494	-308.68077	283.01874	239.48896	
410	4.090	-282.49968	117.14278	986.90089	-150.32125	115.71795	963.07098	-173.59888	3.06950	660.38874	-224.44017	152.12542	379.99551	-270.84889	213.76762	350.23984	-348.11880	227.04177	83.30883	-344.96469	157.38401	99.57189	-385.39643	187.18629	117.72800	-299.85343	190.30185	72.68357	-65.53825	34.89306	414.98810	-114.45492	-11.61299	372.60176	-188.33004	179.41154	658.04140	-271.58570	94.05609	803.32019	-288.05145	46.66172	709.54280	-231.29292	-17.22253	131.63011	-189.20070	16.22906	108.27031	-233.38246	51.75118	142.71769	-263.18105	17.01177	174.10670	-292.47661	115.83861	711.27790	-144.58567	-80.66738	480.51315	-253.02714	275.39182	478.25343	-167.49624	-79.47762	276.07826	-306.74029	284.21241	239.80602	
